<?xml version="1.0" encoding="UTF-8"?>
<svg id="Layer_2" data-name="Layer 2" xmlns="http://www.w3.org/2000/svg" viewBox="0 0 303.58 278.96">
  <g id="Layer_1-2" data-name="Layer 1">
    <g>
      <g>
        <path d="M0,245.13l19.53-67.64h15.43l19.53,67.64h-13.58l-13.24-51.11h-.86l-13.24,51.11H0ZM9.86,232.31v-11.62h34.29v11.62H9.86Z" style="fill: #271f6a;"/>
        <path d="M73.55,246.08c-6.26,0-11.12-2.25-14.6-6.76s-5.22-10.97-5.22-19.39,1.74-14.81,5.22-19.39c3.48-4.57,8.38-6.86,14.69-6.86,3.68,0,6.49.83,8.41,2.5,1.92,1.67,3.17,4.2,3.74,7.6h4.19l-2.95,16.15c0-4.89-.82-8.46-2.45-10.72-1.64-2.25-4.1-3.38-7.41-3.38s-5.79,1.23-7.57,3.69c-1.78,2.46-2.67,5.93-2.67,10.41s.86,8.13,2.6,10.48c1.73,2.35,4.28,3.52,7.64,3.52,3.68,0,6.25-1.11,7.69-3.33,1.44-2.22,2.17-5.78,2.17-10.67l3.43,16.05h-4.48c-.51,3.37-1.83,5.89-3.95,7.57-2.13,1.68-4.95,2.52-8.48,2.52ZM88.88,245.6l-1.86-10v-61.92h12.91v71.45l-11.05.48Z" style="fill: #271f6a;"/>
        <path d="M109.66,245.13v-67.64h6.29v67.64h-6.29ZM113.95,210.78v-2.76h20.72v2.76h-20.72ZM115.28,209.07v-2.62h13.91c4.51,0,8-1.03,10.48-3.1,2.48-2.06,3.71-4.97,3.71-8.72s-1.24-6.41-3.71-8.36c-2.48-1.95-5.99-2.93-10.53-2.93h-13.67l-1.14-5.86h14.67c6.6,0,11.72,1.46,15.34,4.38,3.62,2.92,5.43,7.07,5.43,12.43,0,4.73-1.52,8.38-4.55,10.93-3.03,2.56-7.34,3.83-12.93,3.83h-17ZM115.28,245.13v-5.86h17.39c4.92,0,8.73-1.12,11.43-3.36,2.7-2.24,4.05-5.41,4.05-9.5,0-4.48-1.35-7.94-4.05-10.38-2.7-2.44-6.51-3.67-11.43-3.67h-17.2l-1.14-2.91h19.77c6.51,0,11.54,1.52,15.1,4.57,3.56,3.05,5.33,7.33,5.33,12.86s-1.83,10.26-5.48,13.46c-3.65,3.19-8.83,4.79-15.53,4.79h-18.24Z" style="fill: #271f6a;"/>
        <path d="M181.16,246.08c-6.73,0-11.97-2.29-15.72-6.86s-5.62-11.02-5.62-19.34,1.87-14.81,5.62-19.36c3.75-4.56,8.99-6.83,15.72-6.83s12.01,2.28,15.74,6.83c3.73,4.56,5.6,11.01,5.6,19.36s-1.87,14.77-5.6,19.34c-3.73,4.57-8.98,6.86-15.74,6.86ZM181.16,240.12c4.7,0,8.34-1.76,10.93-5.29,2.59-3.52,3.88-8.51,3.88-14.96s-1.29-11.47-3.88-14.98c-2.59-3.51-6.23-5.26-10.93-5.26s-8.34,1.75-10.93,5.26c-2.59,3.51-3.88,8.5-3.88,14.98s1.29,11.43,3.88,14.96,6.23,5.29,10.93,5.29Z" style="fill: #271f6a;"/>
        <path d="M212.65,245.13v-50.49h5.76l.57,10.67v39.82h-6.34ZM245.94,245.13v-33.01c0-4-1.06-7.08-3.19-9.24-2.13-2.16-5.08-3.24-8.86-3.24-9.94,0-14.91,5.65-14.91,16.96l-3-12.81h3.57c.73-3.4,2.32-5.93,4.76-7.6s5.81-2.5,10.1-2.5c5.68,0,10.08,1.62,13.2,4.86,3.11,3.24,4.67,7.81,4.67,13.72v32.87h-6.33Z" style="fill: #271f6a;"/>
        <path d="M280.67,246.08c-6.61,0-11.62-2.17-15.03-6.53-3.41-4.35-5.12-10.75-5.12-19.19s1.72-15.4,5.17-19.91c3.45-4.51,8.5-6.76,15.17-6.76,4.45,0,8.03.98,10.74,2.95,2.71,1.97,4.4,4.84,5.07,8.62h3.52l-2.95,13.91c0-6.48-1.29-11.38-3.88-14.72s-6.38-5-11.36-5-8.71,1.76-11.27,5.29c-2.56,3.52-3.83,8.73-3.83,15.62s1.28,11.5,3.83,14.88,6.33,5.07,11.31,5.07,8.76-1.67,11.34-5c2.57-3.33,3.86-8.22,3.86-14.67l3.43,13.48h-3.9c-.64,3.72-2.29,6.64-4.96,8.76-2.67,2.13-6.38,3.19-11.14,3.19ZM298.25,245.6l-1-12.15v-59.78h6.34v71.59l-5.33.33Z" style="fill: #271f6a;"/>
      </g>
      <g>
        <path d="M9.72,270.07c0-.74.14-1.43.41-2.08s.65-1.22,1.13-1.7c.47-.48,1.03-.87,1.67-1.15.63-.28,1.31-.42,2.03-.42.8,0,1.55.17,2.24.51.69.34,1.28.8,1.77,1.38l-.79.6c-.41-.47-.88-.85-1.42-1.13s-1.13-.41-1.77-.41c-.57,0-1.11.12-1.62.35-.51.23-.95.55-1.34.95-.38.4-.69.87-.91,1.4-.22.54-.33,1.11-.33,1.71s.11,1.18.33,1.71c.22.53.53,1,.91,1.4.38.4.83.71,1.34.94s1.05.35,1.62.35c.64,0,1.23-.14,1.77-.41s1.02-.64,1.42-1.12l.79.58c-.49.58-1.08,1.05-1.77,1.4s-1.43.52-2.24.52c-.72,0-1.39-.14-2.03-.43-.64-.29-1.19-.67-1.67-1.16-.47-.48-.85-1.05-1.13-1.71s-.41-1.35-.41-2.09Z" style="fill: #a5191d;"/>
        <path d="M20.3,271.58c0-.54.1-1.05.3-1.53.2-.47.49-.89.84-1.25s.78-.64,1.25-.84c.47-.2.98-.3,1.53-.3s1.05.1,1.52.3c.47.2.88.49,1.24.84.36.36.64.78.84,1.25.2.47.31.98.31,1.53s-.1,1.05-.31,1.53c-.2.48-.48.89-.84,1.25s-.77.64-1.24.84c-.47.2-.98.31-1.52.31s-1.05-.1-1.53-.31c-.47-.2-.89-.48-1.25-.84-.36-.36-.64-.77-.84-1.25-.2-.47-.3-.98-.3-1.53ZM21.32,271.56c0,.41.08.79.23,1.16.15.37.36.69.62.97s.57.5.93.66c.36.17.75.25,1.16.25s.77-.08,1.12-.25c.35-.16.65-.38.92-.66s.47-.6.62-.97.23-.76.23-1.16-.08-.79-.23-1.16c-.15-.36-.36-.68-.62-.96s-.57-.49-.92-.65c-.35-.16-.72-.24-1.12-.24-.42,0-.8.08-1.16.24s-.67.38-.93.65-.47.6-.62.96c-.15.36-.23.75-.23,1.16Z" style="fill: #a5191d;"/>
        <path d="M35.23,270.88c0-.37-.06-.7-.17-.98-.11-.29-.26-.53-.46-.72s-.42-.34-.68-.44c-.26-.1-.54-.15-.84-.15-.33,0-.63.06-.91.18-.28.12-.51.29-.71.5-.2.21-.35.46-.47.75s-.17.59-.17.92v4.25h-1.02v-7.27h1.02v1.1c.25-.43.59-.76,1-.99.42-.23.89-.35,1.42-.35.42,0,.81.07,1.17.22.36.15.68.35.94.62s.48.6.63.99c.15.39.23.82.23,1.29v4.38h-1v-4.3Z" style="fill: #a5191d;"/>
        <path d="M43.7,270.88c0-.37-.06-.7-.17-.98-.11-.29-.26-.53-.46-.72s-.42-.34-.68-.44c-.26-.1-.54-.15-.84-.15-.33,0-.63.06-.91.18-.28.12-.51.29-.71.5-.2.21-.35.46-.47.75s-.17.59-.17.92v4.25h-1.02v-7.27h1.02v1.1c.25-.43.59-.76,1-.99.42-.23.89-.35,1.42-.35.42,0,.81.07,1.17.22.36.15.68.35.94.62s.48.6.63.99c.15.39.23.82.23,1.29v4.38h-1v-4.3Z" style="fill: #a5191d;"/>
        <path d="M47.42,271.93c.04.38.14.73.3,1.06.17.33.37.61.62.85s.55.42.88.56.69.2,1.07.2c.46,0,.88-.11,1.26-.33.38-.22.71-.51,1-.88l.84.49c-.37.49-.82.89-1.36,1.18-.54.3-1.13.44-1.77.44-.54,0-1.05-.1-1.53-.3-.47-.2-.89-.48-1.24-.84s-.62-.77-.83-1.25c-.2-.48-.3-1-.3-1.55s.1-1.07.3-1.55c.2-.48.47-.89.82-1.24.35-.35.75-.62,1.21-.83.46-.2.95-.3,1.48-.3s1.01.1,1.47.3c.46.2.85.47,1.2.81.34.34.62.74.81,1.21.2.46.3.96.3,1.5,0,.14-.05.25-.15.33-.1.09-.22.13-.36.13h-6.03ZM52.91,271.1c-.05-.37-.15-.71-.31-1.02-.16-.31-.35-.58-.59-.8s-.51-.4-.81-.53c-.31-.13-.63-.2-.98-.2s-.7.07-1.01.2c-.31.13-.6.31-.84.54-.25.23-.45.5-.62.81-.17.31-.27.64-.32,1h5.48Z" style="fill: #a5191d;"/>
        <path d="M56.33,271.56c0,.42.08.81.23,1.18s.35.69.61.97.56.49.91.65.72.24,1.12.24.78-.08,1.11-.24.64-.38.91-.65l.73.6c-.36.37-.77.66-1.24.87s-.98.32-1.52.32-1.03-.1-1.5-.31c-.47-.2-.88-.48-1.23-.84-.35-.35-.62-.77-.82-1.25-.2-.48-.3-1-.3-1.55s.1-1.07.3-1.54c.2-.47.47-.89.82-1.24.35-.35.76-.62,1.23-.83.47-.2.97-.3,1.5-.3s1.05.11,1.52.32.88.5,1.24.87l-.73.6c-.27-.27-.58-.49-.91-.65s-.71-.24-1.11-.24-.77.08-1.12.24-.65.38-.91.65-.46.59-.61.95-.23.75-.23,1.17Z" style="fill: #a5191d;"/>
        <path d="M64.59,268.76h-1.48v-.84h1.48v-2.01h1v2.01h1.45v.84h-1.45v6.43h-1v-6.43Z" style="fill: #a5191d;"/>
        <path d="M68.61,265.79c0-.18.07-.34.2-.46s.29-.19.47-.19.34.06.47.19.2.28.2.46c0,.19-.07.35-.2.48s-.29.19-.47.19-.34-.06-.47-.19-.2-.29-.2-.48ZM68.79,267.91h1v7.27h-1v-7.27Z" style="fill: #a5191d;"/>
        <path d="M77.31,270.88c0-.37-.06-.7-.17-.98-.11-.29-.26-.53-.46-.72s-.42-.34-.68-.44c-.26-.1-.54-.15-.84-.15-.33,0-.63.06-.91.18-.28.12-.51.29-.71.5-.2.21-.35.46-.47.75s-.17.59-.17.92v4.25h-1.02v-7.27h1.02v1.1c.25-.43.59-.76,1-.99.42-.23.89-.35,1.42-.35.42,0,.81.07,1.17.22.36.15.68.35.94.62s.48.6.63.99c.15.39.23.82.23,1.29v4.38h-1v-4.3Z" style="fill: #a5191d;"/>
        <path d="M79.98,271.56c0-.54.09-1.05.28-1.52.19-.47.45-.88.78-1.24.33-.36.71-.64,1.16-.84.44-.2.91-.3,1.4-.3.32,0,.63.05.92.14s.57.22.83.37c.26.15.49.34.69.54.2.21.38.43.52.68v-1.47h1v7.17c0,.68-.1,1.26-.31,1.75-.21.49-.49.89-.83,1.21-.34.32-.74.55-1.18.7-.45.15-.91.23-1.38.23-.61,0-1.22-.11-1.83-.34-.61-.23-1.16-.56-1.66-1l.6-.7c.41.34.85.61,1.33.82.48.21.99.31,1.52.31.37,0,.72-.06,1.05-.17.33-.11.62-.29.87-.53s.45-.55.6-.92.23-.81.23-1.32v-1.38c-.15.24-.32.47-.52.68-.2.21-.43.39-.69.55s-.53.29-.83.38-.6.14-.92.14c-.5,0-.96-.1-1.4-.31-.44-.21-.83-.49-1.16-.84-.33-.35-.59-.77-.78-1.25-.19-.48-.28-.99-.28-1.52ZM81,271.56c0,.41.07.79.22,1.16.15.36.34.68.59.96s.54.49.87.65c.33.16.7.24,1.08.24s.74-.08,1.08-.24c.34-.16.63-.38.88-.65s.44-.6.59-.96c.14-.36.22-.75.22-1.16s-.07-.79-.22-1.16c-.15-.36-.34-.68-.59-.96s-.54-.49-.88-.65c-.34-.16-.7-.24-1.08-.24s-.75.08-1.08.24c-.33.16-.62.38-.87.65s-.44.6-.59.96c-.15.36-.22.75-.22,1.16Z" style="fill: #a5191d;"/>
        <path d="M94.36,268.76h-1.48v-.84h1.48v-2.01h1v2.01h1.45v.84h-1.45v6.43h-1v-6.43Z" style="fill: #a5191d;"/>
        <path d="M103.91,270.88c0-.37-.06-.7-.17-.98-.11-.29-.26-.53-.46-.72s-.42-.34-.68-.44c-.26-.1-.54-.15-.84-.15-.33,0-.63.06-.91.18-.28.12-.51.29-.71.5-.2.21-.35.46-.47.75s-.17.59-.17.92v4.25h-1.02v-10.19h1.02v4.03c.25-.42.59-.74,1-.98s.89-.36,1.42-.36c.42,0,.81.07,1.17.22.36.15.68.35.94.62s.48.6.63.99c.15.39.23.82.23,1.29v4.38h-1v-4.3Z" style="fill: #a5191d;"/>
        <path d="M107.63,271.93c.04.38.14.73.3,1.06.17.33.37.61.62.85s.55.42.88.56.69.2,1.07.2c.46,0,.88-.11,1.26-.33.38-.22.71-.51,1-.88l.84.49c-.37.49-.82.89-1.36,1.18-.54.3-1.13.44-1.77.44-.54,0-1.05-.1-1.53-.3-.47-.2-.89-.48-1.24-.84s-.62-.77-.83-1.25c-.2-.48-.3-1-.3-1.55s.1-1.07.3-1.55c.2-.48.47-.89.82-1.24.35-.35.75-.62,1.21-.83.46-.2.95-.3,1.48-.3s1.01.1,1.47.3c.46.2.85.47,1.2.81.34.34.62.74.81,1.21.2.46.3.96.3,1.5,0,.14-.05.25-.15.33-.1.09-.22.13-.36.13h-6.03ZM113.13,271.1c-.05-.37-.15-.71-.31-1.02-.16-.31-.35-.58-.59-.8s-.51-.4-.81-.53c-.31-.13-.63-.2-.98-.2s-.7.07-1.01.2c-.31.13-.6.31-.84.54-.25.23-.45.5-.62.81-.17.31-.27.64-.32,1h5.48Z" style="fill: #a5191d;"/>
        <path d="M123.15,265.88c.11-.25.24-.48.41-.68.17-.2.41-.31.73-.31.16,0,.3.03.42.09.12.06.22.13.31.23.09.09.16.2.23.31.06.12.12.24.18.36l4.03,9.3h-2.19l-.77-1.89h-4.39l-.77,1.89h-2.2l4.03-9.3ZM122.81,271.5h2.94l-1.47-3.58-1.47,3.58Z" style="fill: #a5191d;"/>
        <path d="M134.96,264.89v1.56h-.64c-.59,0-.89.3-.89.9v.57h1.53v1.55h-1.53v5.71h-1.92v-5.71h-1.38v-1.55h1.38v-.48c0-1.7.85-2.54,2.54-2.54h.9Z" style="fill: #a5191d;"/>
        <path d="M141.39,264.89v1.56h-.64c-.59,0-.89.3-.89.9v.57h1.53v1.55h-1.53v5.71h-1.92v-5.71h-1.38v-1.55h1.38v-.48c0-1.7.85-2.54,2.54-2.54h.9Z" style="fill: #a5191d;"/>
        <path d="M143.06,265.76c0-.32.11-.59.34-.82s.5-.34.82-.34.59.11.82.34.34.5.34.82-.11.59-.34.82c-.23.23-.5.34-.82.34s-.59-.11-.82-.34c-.23-.23-.34-.5-.34-.82ZM143.27,267.91h1.92v7.27h-1.92v-7.27Z" style="fill: #a5191d;"/>
        <path d="M149.2,275.18h-1.92v-10.18h1.92v10.18Z" style="fill: #a5191d;"/>
        <path d="M151.09,265.76c0-.32.11-.59.34-.82s.5-.34.82-.34.59.11.82.34.34.5.34.82-.11.59-.34.82c-.23.23-.5.34-.82.34s-.59-.11-.82-.34c-.23-.23-.34-.5-.34-.82ZM151.29,267.91h1.92v7.27h-1.92v-7.27Z" style="fill: #a5191d;"/>
        <path d="M154.94,271.58c0-.54.09-1.05.28-1.53.19-.47.45-.89.78-1.25.33-.36.71-.64,1.15-.84.44-.2.91-.3,1.41-.3.46,0,.88.08,1.29.25.4.17.76.41,1.08.71v-.7h1.9v7.27h-1.9v-.64c-.32.3-.68.54-1.08.71s-.83.25-1.29.25c-.5,0-.97-.1-1.41-.31-.44-.2-.82-.48-1.15-.84-.33-.36-.59-.77-.78-1.25-.19-.47-.28-.98-.28-1.53ZM156.77,271.56c0,.3.06.59.17.86.11.27.26.51.46.72.19.21.42.37.68.5s.53.18.82.18.56-.06.82-.18.48-.29.67-.5c.19-.21.34-.45.45-.72.11-.27.17-.56.17-.86s-.06-.57-.17-.84-.26-.51-.45-.71c-.19-.2-.41-.37-.67-.49s-.53-.18-.82-.18-.56.06-.82.18-.48.28-.68.49c-.19.2-.35.44-.46.71-.11.27-.17.55-.17.84Z" style="fill: #a5191d;"/>
        <path d="M165.82,269.47h-1.41v-1.55h1.41v-2.01h1.9v2.01h1.4v1.55h-1.4v5.71h-1.9v-5.71Z" style="fill: #a5191d;"/>
        <path d="M172.02,272.19c.14.47.39.86.77,1.17.38.31.81.47,1.31.47.35,0,.67-.08.97-.25s.55-.39.74-.68l1.67.68c-.36.58-.83,1.05-1.42,1.4-.59.35-1.25.52-1.98.52-.55,0-1.07-.1-1.55-.31-.48-.2-.9-.48-1.26-.84-.36-.36-.64-.77-.85-1.25-.21-.47-.31-.98-.31-1.53s.1-1.05.31-1.53c.21-.47.49-.89.85-1.25.36-.36.78-.64,1.26-.84.48-.2,1-.3,1.55-.3.52,0,1.01.09,1.48.28.46.19.87.45,1.22.77.35.32.64.71.86,1.14.22.44.35.91.38,1.41.02.28-.06.51-.23.68s-.43.25-.76.25h-5.02ZM176.02,270.87c-.14-.44-.38-.8-.74-1.1-.36-.3-.77-.44-1.22-.44-.23,0-.46.04-.67.12-.21.08-.41.19-.58.33-.17.14-.33.3-.46.49-.13.18-.23.39-.3.61h3.97Z" style="fill: #a5191d;"/>
        <path d="M189.05,265.86c.1-.28.23-.49.4-.64.17-.14.39-.22.68-.22s.5.07.67.22c.17.15.3.36.39.64l1.85,5.77,2.06-6.63h2.17l-3.17,9.41c-.09.25-.22.44-.4.57-.18.13-.38.2-.6.2s-.43-.07-.61-.2c-.18-.13-.32-.32-.39-.57l-1.96-5.74-1.96,5.74c-.09.25-.22.44-.41.57-.18.13-.39.2-.61.2s-.42-.07-.6-.2c-.18-.13-.31-.32-.4-.57l-3.17-9.41h2.17l2.06,6.63,1.85-5.77Z" style="fill: #a5191d;"/>
        <path d="M198.55,271.58c0-.54.1-1.05.31-1.53.21-.47.49-.89.86-1.25s.79-.64,1.27-.84c.48-.2,1-.3,1.56-.3s1.07.1,1.56.3c.48.2.91.49,1.27.84s.65.78.86,1.25c.21.47.31.98.31,1.53s-.1,1.05-.31,1.53c-.21.48-.49.89-.86,1.25-.36.36-.79.64-1.27.84-.49.2-1,.31-1.56.31s-1.07-.1-1.56-.31c-.49-.2-.91-.48-1.27-.84-.36-.36-.65-.77-.86-1.25-.21-.47-.31-.98-.31-1.53ZM200.39,271.56c0,.3.06.59.17.86.12.27.27.51.47.72.19.21.42.37.69.5s.55.18.85.18.57-.06.83-.18.49-.29.69-.5c.2-.21.35-.45.47-.72.11-.27.17-.56.17-.86s-.06-.57-.17-.84c-.11-.27-.27-.51-.47-.71-.2-.2-.43-.37-.69-.49s-.54-.18-.83-.18-.58.06-.85.18-.5.28-.69.49c-.19.2-.35.44-.47.71s-.17.55-.17.84Z" style="fill: #a5191d;"/>
        <path d="M212.18,269.46c-.64,0-1.14.18-1.5.54-.36.36-.54.83-.54,1.41v3.78h-1.92v-7.27h1.92v.83c.23-.34.53-.6.9-.79.37-.18.75-.28,1.13-.28v1.77Z" style="fill: #a5191d;"/>
        <path d="M215.65,275.18h-1.92v-10.18h1.92v10.18Z" style="fill: #a5191d;"/>
        <path d="M217.32,271.58c0-.54.09-1.05.28-1.53.19-.47.45-.89.78-1.25.33-.36.71-.64,1.15-.84.44-.2.91-.3,1.41-.3.46,0,.88.08,1.29.25.4.17.76.41,1.08.71v-3.61h1.9v10.18h-1.9v-.64c-.32.3-.68.54-1.08.71s-.83.25-1.29.25c-.5,0-.97-.1-1.41-.31-.44-.2-.82-.48-1.15-.84-.33-.36-.59-.77-.78-1.25-.19-.47-.28-.98-.28-1.53ZM219.15,271.56c0,.3.06.59.17.86.11.27.26.51.46.72.19.21.42.37.68.5s.53.18.82.18.56-.06.82-.18.48-.29.67-.5c.19-.21.34-.45.45-.72.11-.27.17-.56.17-.86s-.06-.57-.17-.84-.26-.51-.45-.71c-.19-.2-.41-.37-.67-.49s-.53-.18-.82-.18-.56.06-.82.18-.48.28-.68.49c-.19.2-.35.44-.46.71-.11.27-.17.55-.17.84Z" style="fill: #a5191d;"/>
        <path d="M230.38,267.91h1.06l2.01,5.83,1.7-5.51c.09-.28.27-.42.55-.42s.47.14.55.42l1.69,5.51,2.01-5.83h1.06l-2.54,7.01c-.05.14-.12.23-.21.29-.09.06-.19.09-.3.09s-.21-.03-.3-.09c-.09-.06-.16-.16-.21-.29l-1.75-5.5-1.76,5.5c-.05.14-.12.23-.21.29-.09.06-.19.09-.28.09-.11,0-.21-.03-.31-.08-.1-.05-.17-.15-.22-.3l-2.54-7.01Z" style="fill: #a5191d;"/>
        <path d="M242.43,265.79c0-.18.07-.34.2-.46s.29-.19.47-.19.34.06.47.19.2.28.2.46c0,.19-.07.35-.2.48s-.29.19-.47.19-.34-.06-.47-.19-.2-.29-.2-.48ZM242.6,267.91h1v7.27h-1v-7.27Z" style="fill: #a5191d;"/>
        <path d="M246.82,268.76h-1.48v-.84h1.48v-2.01h1v2.01h1.45v.84h-1.45v6.43h-1v-6.43Z" style="fill: #a5191d;"/>
        <path d="M256.37,270.88c0-.37-.06-.7-.17-.98-.11-.29-.26-.53-.46-.72s-.42-.34-.68-.44c-.26-.1-.54-.15-.84-.15-.33,0-.63.06-.91.18-.28.12-.51.29-.71.5-.2.21-.35.46-.47.75s-.17.59-.17.92v4.25h-1.02v-10.19h1.02v4.03c.25-.42.59-.74,1-.98s.89-.36,1.42-.36c.42,0,.81.07,1.17.22.36.15.68.35.94.62s.48.6.63.99c.15.39.23.82.23,1.29v4.38h-1v-4.3Z" style="fill: #a5191d;"/>
        <path d="M262.86,265.01h7.12v.95h-3.02v9.23h-1.06v-9.23h-3.04v-.95Z" style="fill: #a5191d;"/>
        <path d="M273.64,268.58c-.35,0-.67.06-.97.18-.3.12-.56.29-.77.5-.21.21-.38.46-.5.75s-.18.59-.18.92v4.25h-1.02v-7.27h1.02v1.1c.27-.41.61-.73,1.02-.97s.88-.36,1.41-.37v.9Z" style="fill: #a5191d;"/>
        <path d="M276.29,272.22c0,.36.06.68.17.97s.26.53.45.73c.19.2.41.35.68.45s.54.15.84.15c.33,0,.63-.06.91-.19s.52-.3.72-.51c.2-.21.36-.46.47-.75.11-.29.17-.59.17-.92v-4.23h1v7.27h-1v-1.09c-.27.41-.61.73-1.02.97-.41.24-.88.36-1.42.36-.42,0-.8-.08-1.16-.23-.36-.15-.67-.36-.95-.63s-.48-.6-.64-.98-.23-.81-.23-1.29v-4.38h1.02v4.3Z" style="fill: #a5191d;"/>
        <path d="M283.47,269.63c0-.36.08-.66.23-.92.15-.25.34-.46.58-.61s.5-.27.79-.34c.29-.07.57-.11.84-.11.55,0,1.03.11,1.42.34.4.23.75.52,1.05.87l-.77.51c-.21-.22-.45-.41-.72-.57s-.59-.24-.97-.24c-.18,0-.36.02-.54.07-.17.04-.33.11-.46.2-.14.09-.25.2-.33.33-.08.14-.12.3-.12.49,0,.34.16.62.48.83.32.21.78.43,1.37.64.2.08.43.17.68.28.25.11.49.25.71.42.22.17.4.39.55.64s.23.57.23.95-.08.71-.23.97c-.16.26-.36.48-.6.64-.25.17-.52.28-.81.36-.29.07-.58.11-.86.11-.61,0-1.13-.13-1.57-.39-.44-.26-.82-.58-1.15-.97l.78-.6c.07.1.16.21.28.33s.26.24.43.34.35.2.56.27c.21.07.43.11.68.11.16,0,.32-.02.49-.06.17-.04.33-.1.48-.2.15-.09.27-.21.36-.36s.15-.34.15-.56c0-.19-.04-.37-.12-.52-.08-.15-.21-.29-.38-.41s-.38-.25-.64-.36-.55-.24-.89-.36c-.18-.08-.39-.17-.62-.27-.23-.1-.44-.23-.65-.39-.2-.16-.37-.36-.51-.59-.14-.23-.2-.52-.2-.86Z" style="fill: #a5191d;"/>
        <path d="M291.39,268.76h-1.48v-.84h1.48v-2.01h1v2.01h1.45v.84h-1.45v6.43h-1v-6.43Z" style="fill: #a5191d;"/>
      </g>
      <g>
        <g>
          <path d="M112.74,74.03c.86,1.35,8.92,3.94,10.78,4.24,8.95,1.44,18.54-2.88,26.6,3.03,5.48-3.57,12.12-5.87,18.73-4.69,5.26.94,7.71,2.67,13.58,1.29,1.09-.26,8.09-3.31,8.44-3.85.15-.24.14-1.43.6-2.28.39-.74.99-1.21,1.67-1.67,1.43-.96,7.77-4.43,9.16-4.43,2.71,0,6.91,4.45,8.64,6.47,6.74,7.89,10.86,19.29,10.01,29.71-.14,1.79-.67,4.58-2.13,5.76-.62.5-5.83,2.85-6.65,3.05s-2.01.27-2.83.08c-.98-.23-1.34-1.43-2.41-1.1l-13.82,6.38c-.15,4.7-3.08,8.14-7.94,8.13,1.28,4.69-2.7,9.33-7.59,8.79.87,4.96-3.44,9.71-8.49,8.19-.53,7.92-7.85,8.59-13.34,4.55-2.71,6.09-11,5.38-13.5-.6-3.96,3.21-9.39,1.12-11.24-3.33-6.34,3.78-13.4-2.29-10.75-9.11-4.93.63-8.63-3.79-7.81-8.57.16-.91,1.26-2.41,1.1-3.04-.15-.59-1.74-1.82-2.86-2.93-1.18-1.17-2.56-2.13-4.03-2.89l-10.64-5.49c-1.48,1.11-2.69,1.41-4.57.95-.92-.23-5.91-2.49-6.65-3.06-2.47-1.88-2.35-8.89-2.15-11.82.62-9.16,7.69-24.28,15.81-29.08,1.94-1.15,2.84-1.26,4.94-.44,1.61.63,8.08,4.21,8.74,5.51.36.71.39,1.89.63,2.26Z" style="fill: #271f6a;"/>
          <path d="M147.24,82.91l-16.5,10.64c-3.28,4.1-.66,8.38,3.45,10.45,8.34,4.21,15.12-4.29,22.92-5.01,6.75-.63,11.19,2.92,16.73,6.01,4.06,2.27,10.28,5.38,13.85,7.99,2.37,1.73,3.18,5.25.61,7.19-2.02,1.52-3.6.87-5.58-.1-2.26-1.11-6.4-4.32-8.48-4.87s-2.92,1.26-1.38,2.59c2.94,2.53,12.65,4.8,8.65,10.46-3.77,5.34-11.23-3.59-15.48-3.98-.65.2-1.34,1.09-1.16,1.79.34,1.31,6.7,4.07,8.13,5.24,3.59,2.93.7,8.34-3.79,6.82-1.95-.66-5.28-3.64-7.03-3.91-.7-.11-1.04.32-1.59.55-.7-4.99-5.3-7.35-10-6.07-.75-4.88-5.47-6.93-10.01-5.76-.39-4.44-5.64-7.34-9.71-5.45-.94-5.07-5.96-7.83-10.72-5.41-2.57,1.3-3.35,4.11-4.91,6.31l-.41-.43c-2.37-2.49-5.14-4.56-8.2-6.14l-9.69-5c-.46-11.66,5.3-22.58,13.9-30.14,4.13,1.91,7.77,3.93,12.37,4.63,8.2,1.25,16.27-2.1,24.03,1.6Z" style="fill: #fefefe;"/>
          <path d="M206.64,106.52c-1.94.45-13.85,6.88-14.63,6.7-.16-.04-1.61-1.97-2.15-2.4-4.1-3.27-15.14-9.1-20.16-11.68-6.98-3.58-11.23-4.41-18.81-1.5-5.28,2.03-10.38,6.69-16.18,3.12-2.42-1.49-3.43-3.63-.91-5.65,4.28-3.46,21-13.67,25.95-15,8.18-2.21,12.82,2,20.71,1.29,4.44-.4,8.24-2.87,12.09-4.8,8.68,7.4,14.45,18.34,14.1,29.94Z" style="fill: #fefefe;"/>
          <path d="M132.91,119.98c3.49-.5,5.73,2.75,4.47,6-.65,1.68-6.15,11.2-7.27,12.45-3.18,3.56-8.83.3-6.98-4.56.84-2.22,5.39-10,6.87-11.93.76-.99,1.61-1.77,2.91-1.96Z" style="fill: #fefefe;"/>
          <path d="M142.61,125.75c3.58-.61,5.68,2.38,4.79,5.7-.22.83-5.74,10.2-6.41,10.88-3.12,3.17-8.21.18-6.96-4.53.19-.72,5.65-10.04,6.27-10.71.58-.63,1.45-1.2,2.3-1.34Z" style="fill: #fefefe;"/>
          <path d="M123.22,114.22c3-.32,5.22,2.54,4.47,5.4-.29,1.1-4.03,7.54-4.85,8.49-3.03,3.51-8.54.83-7.29-3.96.18-.68,4.33-7.85,4.88-8.47.69-.77,1.76-1.36,2.8-1.47Z" style="fill: #fefefe;"/>
          <path d="M152.31,131.51c3.27-.68,5.83,1.91,5.17,5.17-.17.82-4.55,8.37-5.23,9.03-3.03,2.97-7.91.09-7.07-4.04.18-.9,3.93-7.43,4.65-8.39.55-.72,1.58-1.58,2.48-1.77Z" style="fill: #fefefe;"/>
          <path d="M160.59,136.6c2.32,1.66,6.51,2.7,5.06,6.42-1.37,3.51-5.88,1.94-8.07.07.88-2.21,2.53-4.11,3.01-6.49Z" style="fill: #fefefe;"/>
          <path d="M217.88,94.63c-.98-7.9-5.34-16.8-10.91-22.45-.92-.93-3.72-3.66-4.9-3.47-.64.1-6.79,3.5-7.49,4.06-.3.24-.63.45-.63.9,0,.48,6.17,5.72,6.68,6.98,5.96,7.53,7.66,14.2,9.11,23.5.06.78-.09,1.67,0,2.43.07.57.17,1.55,1,1.47.32-.03,5.58-2.29,5.95-2.55.53-.37.65-.7.85-1.28.82-2.45.67-7,.35-9.59Z" style="fill: #eeb41f;"/>
          <path d="M107.1,71.63c-1.07-.66-5.42-3.15-6.34-2.93-.95.23-5.43,4.84-6.29,5.87-4.46,5.36-7.91,13.1-8.77,20.05-.32,2.59-.47,7.14.35,9.59.19.58.32.91.85,1.28.38.26,5.63,2.52,5.95,2.55.99.1.94-1.16,1-1.77.07-.69-.05-1.43,0-2.12,1.57-9.41,3.03-15.83,9.11-23.5.51-1.26,6.68-6.5,6.68-6.98,0-.75-1.87-1.61-2.54-2.02Z" style="fill: #eeb41f;"/>
          <path d="M197.59,60.16l.3-29.73-.3,29.73Z" style="fill: #abbdfe;"/>
        </g>
        <g>
          <path d="M121.17,39.64c-.38,0-.76-.15-1.05-.43-.58-.58-.58-1.52,0-2.1l17.91-17.91,18.78,6.32,18.26-18.2,17.96,9.18,15.37-15.37c.58-.58,1.52-.58,2.1,0,.58.58.58,1.52,0,2.1l-16.89,16.89-17.96-9.19-18.04,17.97-18.77-6.32-16.61,16.61c-.29.29-.67.43-1.05.43Z" style="fill: #271f6a;"/>
          <path d="M209.89,10.63c-.82,0-1.48-.66-1.48-1.48V2.97h-6.18c-.82,0-1.48-.66-1.48-1.48s.66-1.48,1.48-1.48h9.14v9.14c0,.82-.66,1.48-1.48,1.48Z" style="fill: #271f6a;"/>
          <g>
            <circle cx="193.32" cy="17.81" r="2.64" style="fill: #fff;"/>
            <path d="M193.32,21.49c-2.03,0-3.68-1.65-3.68-3.68s1.65-3.68,3.68-3.68,3.68,1.65,3.68,3.68-1.65,3.68-3.68,3.68ZM193.32,16.22c-.88,0-1.59.71-1.59,1.59s.72,1.59,1.59,1.59,1.59-.71,1.59-1.59-.71-1.59-1.59-1.59Z" style="fill: #271f6a;"/>
          </g>
          <g>
            <circle cx="175.36" cy="9.14" r="2.64" style="fill: #fff;"/>
            <path d="M175.36,12.83c-2.03,0-3.68-1.65-3.68-3.68s1.65-3.68,3.68-3.68,3.68,1.65,3.68,3.68-1.65,3.68-3.68,3.68ZM175.36,7.55c-.88,0-1.59.71-1.59,1.59s.72,1.59,1.59,1.59,1.59-.71,1.59-1.59-.72-1.59-1.59-1.59Z" style="fill: #271f6a;"/>
          </g>
          <g>
            <circle cx="157.35" cy="27.03" r="2.64" style="fill: #fff;"/>
            <path d="M157.35,30.71c-2.03,0-3.68-1.65-3.68-3.68s1.65-3.68,3.68-3.68,3.68,1.65,3.68,3.68-1.65,3.68-3.68,3.68ZM157.35,25.44c-.88,0-1.59.71-1.59,1.59s.72,1.59,1.59,1.59,1.59-.71,1.59-1.59-.71-1.59-1.59-1.59Z" style="fill: #271f6a;"/>
          </g>
          <g>
            <circle cx="138.41" cy="20.94" r="2.64" style="fill: #fff;"/>
            <path d="M138.41,24.62c-2.03,0-3.68-1.65-3.68-3.68s1.65-3.68,3.68-3.68,3.68,1.65,3.68,3.68-1.65,3.68-3.68,3.68ZM138.41,19.35c-.88,0-1.59.71-1.59,1.59s.71,1.59,1.59,1.59,1.59-.71,1.59-1.59-.71-1.59-1.59-1.59Z" style="fill: #271f6a;"/>
          </g>
          <g>
            <circle cx="120.7" cy="38.75" r="2.64" style="fill: #fff;"/>
            <path d="M120.7,42.43c-2.03,0-3.68-1.65-3.68-3.68s1.65-3.68,3.68-3.68,3.68,1.65,3.68,3.68-1.65,3.68-3.68,3.68ZM120.7,37.15c-.88,0-1.59.71-1.59,1.59s.71,1.59,1.59,1.59,1.59-.71,1.59-1.59-.71-1.59-1.59-1.59Z" style="fill: #271f6a;"/>
          </g>
        </g>
        <g>
          <g>
            <rect x="117.96" y="50.11" width="6.96" height="11.7" rx="1.77" ry="1.77" style="fill: #fff;"/>
            <path d="M123.16,50.11c.98,0,1.77.79,1.77,1.77v8.16c0,.98-.79,1.77-1.77,1.77h-3.42c-.98,0-1.77-.79-1.77-1.77v-8.16c0-.98.79-1.77,1.77-1.77h3.42M123.16,47.45h-3.42c-2.44,0-4.43,1.99-4.43,4.43v8.16c0,2.44,1.99,4.43,4.43,4.43h3.42c2.44,0,4.43-1.99,4.43-4.43v-8.16c0-2.44-1.99-4.43-4.43-4.43h0Z" style="fill: #271f6a;"/>
          </g>
          <g>
            <rect x="135.97" y="33.61" width="6.96" height="28.19" rx="1.77" ry="1.77" style="fill: #eeb41f;"/>
            <path d="M141.16,33.61c.98,0,1.77.79,1.77,1.77v24.65c0,.98-.79,1.77-1.77,1.77h-3.42c-.98,0-1.77-.79-1.77-1.77v-24.65c0-.98.79-1.77,1.77-1.77h3.42M141.16,30.96h-3.42c-2.44,0-4.43,1.99-4.43,4.43v24.65c0,2.44,1.99,4.43,4.43,4.43h3.42c2.44,0,4.43-1.99,4.43-4.43v-24.65c0-2.44-1.99-4.43-4.43-4.43h0Z" style="fill: #271f6a;"/>
          </g>
          <g>
            <rect x="153.98" y="39.66" width="6.96" height="22.15" rx="1.77" ry="1.77" style="fill: #fff;"/>
            <path d="M159.17,39.66c.98,0,1.77.79,1.77,1.77v18.61c0,.98-.79,1.77-1.77,1.77h-3.42c-.98,0-1.77-.79-1.77-1.77v-18.61c0-.98.79-1.77,1.77-1.77h3.42M159.17,37.01h-3.42c-2.44,0-4.43,1.99-4.43,4.43v18.61c0,2.44,1.99,4.43,4.43,4.43h3.42c2.44,0,4.43-1.99,4.43-4.43v-18.61c0-2.44-1.99-4.43-4.43-4.43h0Z" style="fill: #271f6a;"/>
          </g>
          <g>
            <rect x="171.99" y="22.5" width="6.96" height="39.3" rx="1.77" ry="1.77" style="fill: #eeb41f;"/>
            <path d="M177.18,22.5c.98,0,1.77.79,1.77,1.77v35.76c0,.98-.79,1.77-1.77,1.77h-3.42c-.98,0-1.77-.79-1.77-1.77V24.27c0-.98.79-1.77,1.77-1.77h3.42M177.18,19.85h-3.42c-2.44,0-4.43,1.99-4.43,4.43v35.76c0,2.44,1.99,4.43,4.43,4.43h3.42c2.44,0,4.43-1.99,4.43-4.43V24.27c0-2.44-1.99-4.43-4.43-4.43h0Z" style="fill: #271f6a;"/>
          </g>
          <g>
            <rect x="190" y="30.43" width="6.96" height="31.37" rx="1.77" ry="1.77" style="fill: #fff;"/>
            <path d="M195.19,30.43c.98,0,1.77.79,1.77,1.77v27.83c0,.98-.79,1.77-1.77,1.77h-3.42c-.98,0-1.77-.79-1.77-1.77v-27.83c0-.98.79-1.77,1.77-1.77h3.42M195.19,27.78h-3.42c-2.44,0-4.43,1.99-4.43,4.43v27.83c0,2.44,1.99,4.43,4.43,4.43h3.42c2.44,0,4.43-1.99,4.43-4.43v-27.83c0-2.44-1.99-4.43-4.43-4.43h0Z" style="fill: #271f6a;"/>
          </g>
        </g>
      </g>
    </g>
  </g>
</svg>